# xmcd
# Copyright (C) 1995-1998 Ti Kan
#
# Track frame offsets:
#       150
#       18250
#       39297
#       61182
#       79427
#       105755
#       120794
#       137486
#       163334
#       185278
#       206584
#
# Disc length: 3473 seconds
#
# Revision: 0
# Processed by: cddbd v1.5.2PL0 Copyright (c) Steve Scherf et al.
# Submitted via: CD-Import v1.0
#
DISCID=7f0d8f0b
DTITLE=Soften - We Were Challengers
DYEAR=09
DGENRE=
TTITLE0=Sabotage
TTITLE1=Blaze (The Line)
TTITLE2=Oh July
TTITLE3=Night Trains
TTITLE4=The Soft Ride
TTITLE5=Options
TTITLE6=Make Or Break
TTITLE7=Arena Lynn
TTITLE8=A Handful Of Secrets
TTITLE9=Phases Of Gravity
TTITLE10=The Wave Theory and Hidden Track
EXTD=
EXTT0=
EXTT1=
EXTT2=
EXTT3=
EXTT4=
EXTT5=
EXTT6=
EXTT7=
EXTT8=
EXTT9=
EXTT10=
PLAYORDER=
